<?xml version="1.0" encoding="UTF-8"?>
<svg id="Layer_1" xmlns="http://www.w3.org/2000/svg" version="1.1" viewBox="0 0 512 512">
  <!-- Generator: Adobe Illustrator 29.8.3, SVG Export Plug-In . SVG Version: 2.1.1 Build 3)  -->
  <path d="M360.393,130.394l-104.393,104.393-104.393-104.393c-5.858-5.858-15.355-5.858-21.213,0h0c-5.858,5.858-5.858,15.355,0,21.213l104.393,104.393-104.393,104.393c-5.858,5.858-5.858,15.355,0,21.213h0c5.858,5.858,15.355,5.858,21.213,0l104.393-104.393,104.393,104.393c5.858,5.858,15.355,5.858,21.213,0h0c5.858-5.858,5.858-15.355,0-21.213l-104.393-104.393,104.393-104.393c5.858-5.858,5.858-15.355,0-21.213h0c-5.858-5.858-15.355-5.858-21.213,0Z"/>
</svg>